<svg class="svg-icon" style="width: 1em;height: 1em;vertical-align: middle;fill: currentColor;overflow: hidden;" viewBox="0 0 1024 1024" version="1.1" xmlns="http://www.w3.org/2000/svg"><path d="M755.5 141c50.4 0 96 20.4 129 53.4 32.7 32.7 53 77.7 53.4 127.5v297c0 50.4-20.4 96-53.4 129-32.7 32.7-77.7 53-127.5 53.4H592.4l-75 76.5c-3.9 4-9 6-14.2 6-5 0.1-10-1.7-13.9-5.4l-0.3-0.3-75.3-76.8H268.4c-50.4 0-96-20.4-129-53.4-32.7-32.7-53-77.7-53.4-127.5V323.5c0-50.4 20.4-96 53.4-129 32.7-32.7 77.7-53 127.5-53.4h488.6zM512 384c-25.7 0-48.9 10.4-65.8 27.2S419 451.3 419 477s10.4 48.9 27.2 65.8S486.3 570 512 570c25.7 0 48.9-10.4 65.8-27.2S605 502.7 605 477s-10.4-48.9-27.2-65.8S537.7 384 512 384z m-238 0c-25.7 0-48.9 10.4-65.8 27.2S181 451.3 181 477s10.4 48.9 27.2 65.8S248.3 570 274 570s48.9-10.4 65.8-27.2S367 502.7 367 477s-10.4-48.9-27.2-65.8S299.7 384 274 384z m486 0c-25.7 0-48.9 10.4-65.8 27.2S667 451.3 667 477s10.4 48.9 27.2 65.8S734.3 570 760 570s48.9-10.4 65.8-27.2S853 502.7 853 477s-10.4-48.9-27.2-65.8S785.7 384 760 384z" fill="#333333" /><path d="M503.1 918c-13.8 0-26.9-5.2-36.9-14.6l-1.4-1.4-65.3-66.6h-131c-57.8 0-112.2-22.5-153.1-63.4C75 731.6 52.5 677.9 52 620.7V323.5c0-57.8 22.5-112.2 63.4-153.1 40.4-40.4 94.1-62.9 151.3-63.4H755.6c57.8 0 112.2 22.5 153.1 63.4 40.4 40.4 62.9 94.1 63.4 151.3V619c0 57.8-22.5 112.2-63.4 153.1-40.4 40.4-94.1 62.9-151.3 63.4H606.8l-65 66.3c-10.1 10.3-23.6 16.1-38.1 16.2h-0.6z m-75-150.6l75 76.6 75-76.6h178.7c39.2-0.3 76-15.8 103.7-43.5 28-28 43.5-65.3 43.5-105V322.1c-0.3-39.2-15.8-76-43.5-103.7-28-28-65.3-43.5-105-43.5H267.1c-39.2 0.3-76 15.8-103.7 43.5-28 28-43.5 65.3-43.5 105v296.7c0.3 39.2 15.8 76 43.5 103.7 28 28 65.3 43.5 105 43.5l159.7 0.1zM760 604c-33.9 0-65.8-13.2-89.8-37.2-17.3-17.3-29-38.8-34.2-62.2-5.2 23.4-16.9 44.8-34.2 62.2-24 24-55.9 37.2-89.8 37.2s-65.8-13.2-89.8-37.2c-13.1-13.1-22.9-28.5-29.2-45.2-6.3 16.8-16.1 32.2-29.2 45.2-24 24-55.9 37.2-89.8 37.2s-65.8-13.2-89.8-37.2c-24-24-37.2-55.9-37.2-89.8s13.2-65.8 37.2-89.8c24-24 55.9-37.2 89.8-37.2s65.8 13.2 89.8 37.2c13.1 13.1 22.9 28.5 29.2 45.2 6.3-16.8 16.1-32.2 29.2-45.2 24-24 55.9-37.2 89.8-37.2s65.8 13.2 89.8 37.2c17.3 17.3 29 38.8 34.2 62.2 5.2-23.4 16.9-44.8 34.2-62.2 24-24 55.9-37.2 89.8-37.2s65.8 13.2 89.8 37.2c24 24 37.2 55.9 37.2 89.8s-13.2 65.8-37.2 89.8c-24 24-55.9 37.2-89.8 37.2z m0-186c-15.8 0-30.6 6.1-41.7 17.3-11.1 11.1-17.3 26-17.3 41.7 0 15.8 6.1 30.6 17.3 41.7 11.1 11.1 26 17.3 41.7 17.3s30.6-6.1 41.7-17.3c11.1-11.1 17.3-26 17.3-41.7 0-15.8-6.1-30.6-17.3-41.7-11.1-11.2-25.9-17.3-41.7-17.3z m-248 0c-15.8 0-30.6 6.1-41.7 17.3-11.1 11.1-17.3 26-17.3 41.7 0 15.8 6.1 30.6 17.3 41.7 11.1 11.1 26 17.3 41.7 17.3s30.6-6.1 41.7-17.3c11.1-11.1 17.3-26 17.3-41.7 0-15.8-6.1-30.6-17.3-41.7-11.1-11.2-25.9-17.3-41.7-17.3z m-238 0c-15.8 0-30.6 6.1-41.7 17.3-11.1 11.1-17.3 26-17.3 41.7 0 15.8 6.1 30.6 17.3 41.7 11.1 11.1 26 17.3 41.7 17.3s30.6-6.1 41.7-17.3c11.1-11.1 17.3-26 17.3-41.7 0-15.8-6.1-30.6-17.3-41.7-11.1-11.2-25.9-17.3-41.7-17.3z" fill="#333333" /></svg>