<?xml version="1.0" encoding="UTF-8" standalone="no"?>
<!DOCTYPE svg PUBLIC "-//W3C//DTD SVG 1.1//EN" "http://www.w3.org/Graphics/SVG/1.1/DTD/svg11.dtd">
<!-- Generated by graphviz version 2.40.1 (20161225.0304)
 -->
<!-- Title: GP Pages: 1 -->
<svg width="358pt" height="404pt" viewBox="0.00 0.00 357.94 404.00" xmlns="http://www.w3.org/2000/svg" xmlns:xlink="http://www.w3.org/1999/xlink">
<g id="graph0" class="graph" transform="scale(1 1) rotate(0) translate(4 400)">
<title>GP</title>
<polygon fill="#ffffff" stroke="transparent" points="-4,4 -4,-400 353.9362,-400 353.9362,4 -4,4"/>
<!-- 3 -->
<g id="node1" class="node">
<title>3</title>
<ellipse fill="#ffffff" stroke="#000000" cx="27" cy="-90" rx="27" ry="18"/>
<text text-anchor="middle" x="27" y="-85.8" font-family="Times,serif" font-size="14.00" fill="#000000">1</text>
</g>
<!-- 6 -->
<g id="node2" class="node">
<title>6</title>
<ellipse fill="#ffffff" stroke="#000000" cx="129" cy="-18" rx="27" ry="18"/>
<text text-anchor="middle" x="129" y="-13.8" font-family="Times,serif" font-size="14.00" fill="#000000">0.5</text>
</g>
<!-- 7 -->
<g id="node3" class="node">
<title>7</title>
<polygon fill="#ffffff" stroke="#000000" points="249,-108 222,-90 249,-72 276,-90 249,-108"/>
<text text-anchor="middle" x="249" y="-85.8" font-family="Times,serif" font-size="14.00" fill="#000000">+</text>
</g>
<!-- 7&#45;&gt;6 -->
<g id="edge1" class="edge">
<title>7-&gt;6</title>
<path fill="none" stroke="#000000" d="M234.7632,-81.4579C215.9359,-70.1615 182.3076,-49.9846 158.0166,-35.4099"/>
<polygon fill="#000000" stroke="#000000" points="159.59,-32.2724 149.2143,-30.1286 155.9885,-38.2748 159.59,-32.2724"/>
</g>
<!-- &#45;6 -->
<g id="node4" class="node">
<title>-6</title>
<ellipse fill="none" stroke="#000000" cx="221" cy="-18" rx="27" ry="18"/>
<text text-anchor="middle" x="221" y="-13.8" font-family="Times,serif" font-size="14.00" fill="#000000">0.5</text>
</g>
<!-- 7&#45;&gt;&#45;6 -->
<g id="edge2" class="edge">
<title>7-&gt;-6</title>
<path fill="none" stroke="#000000" d="M243.3338,-75.4297C239.9431,-66.7107 235.5269,-55.3549 231.5176,-45.0453"/>
<polygon fill="#000000" stroke="#000000" points="234.7316,-43.6531 227.8451,-35.6017 228.2076,-46.1903 234.7316,-43.6531"/>
</g>
<!-- 8 -->
<g id="node5" class="node">
<title>8</title>
<ellipse fill="#ffffff" stroke="#000000" cx="138" cy="-90" rx="27.8725" ry="18"/>
<text text-anchor="middle" x="138" y="-85.8" font-family="Times,serif" font-size="14.00" fill="#000000">0.28</text>
</g>
<!-- 9 -->
<g id="node6" class="node">
<title>9</title>
<polygon fill="#ffffff" stroke="#000000" points="284,-180 230,-180 230,-144 284,-144 284,-180"/>
<text text-anchor="middle" x="257" y="-157.8" font-family="Times,serif" font-size="14.00" fill="#000000">∙</text>
</g>
<!-- 9&#45;&gt;7 -->
<g id="edge3" class="edge">
<title>9-&gt;7</title>
<path fill="none" stroke="#000000" d="M254.9813,-143.8314C254.0763,-135.687 252.9904,-125.9137 251.9937,-116.9429"/>
<polygon fill="#000000" stroke="#000000" points="255.4637,-116.4786 250.8807,-106.9263 248.5065,-117.2517 255.4637,-116.4786"/>
</g>
<!-- &#45;8 -->
<g id="node7" class="node">
<title>-8</title>
<ellipse fill="none" stroke="#000000" cx="322" cy="-90" rx="27.8725" ry="18"/>
<text text-anchor="middle" x="322" y="-85.8" font-family="Times,serif" font-size="14.00" fill="#000000">0.72</text>
</g>
<!-- 9&#45;&gt;&#45;8 -->
<g id="edge4" class="edge">
<title>9-&gt;-8</title>
<path fill="none" stroke="#000000" d="M273.4022,-143.8314C281.7114,-134.6273 291.8988,-123.3429 300.7961,-113.4873"/>
<polygon fill="#000000" stroke="#000000" points="303.4914,-115.7249 307.5946,-105.9568 298.2955,-111.0341 303.4914,-115.7249"/>
</g>
<!-- 10 -->
<g id="node8" class="node">
<title>10</title>
<polygon fill="#ffffff" stroke="#000000" points="212,-180 158,-180 158,-144 212,-144 212,-180"/>
<text text-anchor="middle" x="185" y="-157.8" font-family="Times,serif" font-size="14.00" fill="#000000">∙</text>
</g>
<!-- 10&#45;&gt;&#45;6 -->
<g id="edge6" class="edge">
<title>10-&gt;-6</title>
<path fill="none" stroke="#000000" d="M189.5594,-143.7623C195.7268,-119.0928 206.7851,-74.8598 214.0067,-45.9731"/>
<polygon fill="#000000" stroke="#000000" points="217.4477,-46.6399 216.4776,-36.0896 210.6567,-44.9421 217.4477,-46.6399"/>
</g>
<!-- 10&#45;&gt;8 -->
<g id="edge5" class="edge">
<title>10-&gt;8</title>
<path fill="none" stroke="#000000" d="M173.1399,-143.8314C167.5345,-135.2444 160.7471,-124.8466 154.6379,-115.4878"/>
<polygon fill="#000000" stroke="#000000" points="157.4462,-113.3869 149.0491,-106.9263 151.5845,-117.2133 157.4462,-113.3869"/>
</g>
<!-- 11 -->
<g id="node9" class="node">
<title>11</title>
<polygon fill="#ffffff" stroke="#000000" points="209,-252 182,-234 209,-216 236,-234 209,-252"/>
<text text-anchor="middle" x="209" y="-229.8" font-family="Times,serif" font-size="14.00" fill="#000000">+</text>
</g>
<!-- 11&#45;&gt;9 -->
<g id="edge7" class="edge">
<title>11-&gt;9</title>
<path fill="none" stroke="#000000" d="M217.361,-221.4586C223.3801,-212.4298 231.7238,-199.9143 239.2042,-188.6937"/>
<polygon fill="#000000" stroke="#000000" points="242.3224,-190.3261 244.9573,-180.0641 236.498,-186.4432 242.3224,-190.3261"/>
</g>
<!-- 11&#45;&gt;10 -->
<g id="edge8" class="edge">
<title>11-&gt;10</title>
<path fill="none" stroke="#000000" d="M204.0272,-219.0816C201.2057,-210.617 197.5839,-199.7517 194.2588,-189.7763"/>
<polygon fill="#000000" stroke="#000000" points="197.5559,-188.5995 191.0732,-180.2195 190.9151,-190.8132 197.5559,-188.5995"/>
</g>
<!-- 12 -->
<g id="node10" class="node">
<title>12</title>
<polygon fill="#ffffff" stroke="#000000" points="164,-324 110,-324 110,-288 164,-288 164,-324"/>
<text text-anchor="middle" x="137" y="-301.8" font-family="Times,serif" font-size="14.00" fill="#000000">∙</text>
</g>
<!-- 12&#45;&gt;11 -->
<g id="edge10" class="edge">
<title>12-&gt;11</title>
<path fill="none" stroke="#000000" d="M155.1686,-287.8314C166.0299,-276.9701 179.7883,-263.2117 190.6769,-252.3231"/>
<polygon fill="#000000" stroke="#000000" points="193.4196,-254.5302 198.0158,-244.9842 188.4698,-249.5804 193.4196,-254.5302"/>
</g>
<!-- &#45;3 -->
<g id="node11" class="node">
<title>-3</title>
<ellipse fill="none" stroke="#000000" cx="137" cy="-234" rx="27" ry="18"/>
<text text-anchor="middle" x="137" y="-229.8" font-family="Times,serif" font-size="14.00" fill="#000000">1</text>
</g>
<!-- 12&#45;&gt;&#45;3 -->
<g id="edge9" class="edge">
<title>12-&gt;-3</title>
<path fill="none" stroke="#000000" d="M137,-287.8314C137,-280.131 137,-270.9743 137,-262.4166"/>
<polygon fill="#000000" stroke="#000000" points="140.5001,-262.4132 137,-252.4133 133.5001,-262.4133 140.5001,-262.4132"/>
</g>
<!-- 13 -->
<g id="node12" class="node">
<title>13</title>
<polygon fill="#ffffff" stroke="#000000" points="109,-180 55,-180 55,-144 109,-144 109,-180"/>
<text text-anchor="middle" x="82" y="-157.8" font-family="Times,serif" font-size="14.00" fill="#000000">∙</text>
</g>
<!-- 13&#45;&gt;3 -->
<g id="edge11" class="edge">
<title>13-&gt;3</title>
<path fill="none" stroke="#000000" d="M68.1212,-143.8314C61.328,-134.9385 53.0512,-124.1034 45.7089,-114.4916"/>
<polygon fill="#000000" stroke="#000000" points="48.4096,-112.2614 39.5578,-106.4393 42.8469,-116.5107 48.4096,-112.2614"/>
</g>
<!-- 13&#45;&gt;6 -->
<g id="edge13" class="edge">
<title>13-&gt;6</title>
<path fill="none" stroke="#000000" d="M84.3844,-143.6741C87.1296,-125.2019 92.4019,-96.0609 101,-72 104.3926,-62.5061 109.1489,-52.5833 113.7799,-43.8718"/>
<polygon fill="#000000" stroke="#000000" points="116.9234,-45.4193 118.6855,-34.972 110.793,-42.0402 116.9234,-45.4193"/>
</g>
<!-- 13&#45;&gt;8 -->
<g id="edge12" class="edge">
<title>13-&gt;8</title>
<path fill="none" stroke="#000000" d="M96.1312,-143.8314C103.0479,-134.9385 111.4751,-124.1034 118.951,-114.4916"/>
<polygon fill="#000000" stroke="#000000" points="121.8372,-116.4816 125.2139,-106.4393 116.3117,-112.184 121.8372,-116.4816"/>
</g>
<!-- 14 -->
<g id="node13" class="node">
<title>14</title>
<polygon fill="#ffffff" stroke="#000000" points="109,-396 82,-378 109,-360 136,-378 109,-396"/>
<text text-anchor="middle" x="109" y="-373.8" font-family="Times,serif" font-size="14.00" fill="#000000">+</text>
</g>
<!-- 14&#45;&gt;12 -->
<g id="edge14" class="edge">
<title>14-&gt;12</title>
<path fill="none" stroke="#000000" d="M114.6662,-363.4297C118.0085,-354.8353 122.3471,-343.6788 126.3103,-333.4878"/>
<polygon fill="#000000" stroke="#000000" points="129.5877,-334.7166 129.9502,-324.128 123.0637,-332.1794 129.5877,-334.7166"/>
</g>
<!-- 14&#45;&gt;13 -->
<g id="edge15" class="edge">
<title>14-&gt;13</title>
<path fill="none" stroke="#000000" d="M106.4192,-361.4746C104.784,-350.7944 102.6704,-336.5893 101,-324 94.7757,-277.0895 88.5814,-222.3928 85.0302,-190.0642"/>
<polygon fill="#000000" stroke="#000000" points="88.4963,-189.5624 83.9309,-180.0016 81.5376,-190.3226 88.4963,-189.5624"/>
</g>
</g>
</svg>