<?xml version="1.0" encoding="UTF-8" standalone="no"?>
<!DOCTYPE svg PUBLIC "-//W3C//DTD SVG 1.1//EN" "http://www.w3.org/Graphics/SVG/1.1/DTD/svg11.dtd">
<!-- Generated by graphviz version 2.40.1 (20161225.0304)
 -->
<!-- Title: GP Pages: 1 -->
<svg width="399pt" height="404pt" viewBox="0.00 0.00 399.18 404.00" xmlns="http://www.w3.org/2000/svg" xmlns:xlink="http://www.w3.org/1999/xlink">
<g id="graph0" class="graph" transform="scale(1 1) rotate(0) translate(4 400)">
<title>GP</title>
<polygon fill="#ffffff" stroke="transparent" points="-4,4 -4,-400 395.183,-400 395.183,4 -4,4"/>
<!-- 3 -->
<g id="node1" class="node">
<title>3</title>
<ellipse fill="#ffffff" stroke="#000000" cx="28.7329" cy="-90" rx="28.9676" ry="18"/>
<text text-anchor="middle" x="28.7329" y="-85.8" font-family="Times,serif" font-size="14.00" fill="#000000">calls</text>
</g>
<!-- 6 -->
<g id="node2" class="node">
<title>6</title>
<ellipse fill="#ffffff" stroke="#000000" cx="118.7329" cy="-18" rx="44.0833" ry="18"/>
<text text-anchor="middle" x="118.7329" y="-13.8" font-family="Times,serif" font-size="14.00" fill="#000000">at_home</text>
</g>
<!-- 7 -->
<g id="node3" class="node">
<title>7</title>
<polygon fill="#ffffff" stroke="#000000" points="264.7329,-108 235.7011,-90 264.7329,-72 293.7647,-90 264.7329,-108"/>
<text text-anchor="middle" x="264.7329" y="-85.8" font-family="Times,serif" font-size="14.00" fill="#000000">∨</text>
</g>
<!-- 7&#45;&gt;6 -->
<g id="edge1" class="edge">
<title>7-&gt;6</title>
<path fill="none" stroke="#000000" d="M248.5505,-82.0196C226.4426,-71.1171 186.1399,-51.2418 156.2841,-36.5184"/>
<polygon fill="#000000" stroke="#000000" points="157.5107,-33.2209 146.994,-31.937 154.4147,-39.499 157.5107,-33.2209"/>
</g>
<!-- &#45;6 -->
<g id="node4" class="node">
<title>-6</title>
<ellipse fill="none" stroke="#000000" cx="235.7329" cy="-18" rx="50.9425" ry="18"/>
<text text-anchor="middle" x="235.7329" y="-13.8" font-family="Times,serif" font-size="14.00" fill="#000000">¬at_home</text>
</g>
<!-- 7&#45;&gt;&#45;6 -->
<g id="edge2" class="edge">
<title>7-&gt;-6</title>
<path fill="none" stroke="#000000" d="M258.8643,-75.4297C255.3775,-66.773 250.8439,-55.517 246.7152,-45.2664"/>
<polygon fill="#000000" stroke="#000000" points="249.9109,-43.8324 242.9282,-35.8642 243.4178,-46.4478 249.9109,-43.8324"/>
</g>
<!-- 8 -->
<g id="node5" class="node">
<title>8</title>
<ellipse fill="#ffffff" stroke="#000000" cx="146.7329" cy="-90" rx="33.0411" ry="18"/>
<text text-anchor="middle" x="146.7329" y="-85.8" font-family="Times,serif" font-size="14.00" fill="#000000">alarm</text>
</g>
<!-- 9 -->
<g id="node6" class="node">
<title>9</title>
<polygon fill="#ffffff" stroke="#000000" points="298.7329,-180 244.7329,-180 244.7329,-144 298.7329,-144 298.7329,-180"/>
<text text-anchor="middle" x="271.7329" y="-157.8" font-family="Times,serif" font-size="14.00" fill="#000000">∧</text>
</g>
<!-- 9&#45;&gt;7 -->
<g id="edge3" class="edge">
<title>9-&gt;7</title>
<path fill="none" stroke="#000000" d="M269.9665,-143.8314C269.1948,-135.894 268.2727,-126.4095 267.419,-117.6285"/>
<polygon fill="#000000" stroke="#000000" points="270.8776,-117.0321 266.4262,-107.4177 263.9104,-117.7095 270.8776,-117.0321"/>
</g>
<!-- &#45;8 -->
<g id="node7" class="node">
<title>-8</title>
<ellipse fill="none" stroke="#000000" cx="351.7329" cy="-90" rx="39.4003" ry="18"/>
<text text-anchor="middle" x="351.7329" y="-85.8" font-family="Times,serif" font-size="14.00" fill="#000000">¬alarm</text>
</g>
<!-- 9&#45;&gt;&#45;8 -->
<g id="edge4" class="edge">
<title>9-&gt;-8</title>
<path fill="none" stroke="#000000" d="M291.9202,-143.8314C302.275,-134.5121 314.9995,-123.06 326.0463,-113.1179"/>
<polygon fill="#000000" stroke="#000000" points="328.6441,-115.4887 333.7357,-106.1975 323.9613,-110.2856 328.6441,-115.4887"/>
</g>
<!-- 10 -->
<g id="node8" class="node">
<title>10</title>
<polygon fill="#ffffff" stroke="#000000" points="226.7329,-180 172.7329,-180 172.7329,-144 226.7329,-144 226.7329,-180"/>
<text text-anchor="middle" x="199.7329" y="-157.8" font-family="Times,serif" font-size="14.00" fill="#000000">∧</text>
</g>
<!-- 10&#45;&gt;&#45;6 -->
<g id="edge6" class="edge">
<title>10-&gt;-6</title>
<path fill="none" stroke="#000000" d="M204.2923,-143.7623C210.4596,-119.0928 221.5179,-74.8598 228.7396,-45.9731"/>
<polygon fill="#000000" stroke="#000000" points="232.1805,-46.6399 231.2105,-36.0896 225.3895,-44.9421 232.1805,-46.6399"/>
</g>
<!-- 10&#45;&gt;8 -->
<g id="edge5" class="edge">
<title>10-&gt;8</title>
<path fill="none" stroke="#000000" d="M186.3587,-143.8314C179.9726,-135.1559 172.2259,-124.632 165.2819,-115.1987"/>
<polygon fill="#000000" stroke="#000000" points="167.9394,-112.9048 159.1925,-106.9263 162.302,-117.0546 167.9394,-112.9048"/>
</g>
<!-- 11 -->
<g id="node9" class="node">
<title>11</title>
<polygon fill="#ffffff" stroke="#000000" points="230.7329,-252 201.7011,-234 230.7329,-216 259.7647,-234 230.7329,-252"/>
<text text-anchor="middle" x="230.7329" y="-229.8" font-family="Times,serif" font-size="14.00" fill="#000000">∨</text>
</g>
<!-- 11&#45;&gt;9 -->
<g id="edge7" class="edge">
<title>11-&gt;9</title>
<path fill="none" stroke="#000000" d="M238.4446,-220.4574C243.4682,-211.6355 250.1975,-199.8181 256.291,-189.1175"/>
<polygon fill="#000000" stroke="#000000" points="259.5162,-190.5265 261.4232,-180.1047 253.4333,-187.0626 259.5162,-190.5265"/>
</g>
<!-- 11&#45;&gt;10 -->
<g id="edge8" class="edge">
<title>11-&gt;10</title>
<path fill="none" stroke="#000000" d="M224.6083,-219.7751C220.8909,-211.1413 216.0211,-199.8308 211.5767,-189.5083"/>
<polygon fill="#000000" stroke="#000000" points="214.6667,-187.8344 207.4973,-180.0336 208.2373,-190.6026 214.6667,-187.8344"/>
</g>
<!-- 12 -->
<g id="node10" class="node">
<title>12</title>
<polygon fill="#ffffff" stroke="#000000" points="175.7329,-324 121.7329,-324 121.7329,-288 175.7329,-288 175.7329,-324"/>
<text text-anchor="middle" x="148.7329" y="-301.8" font-family="Times,serif" font-size="14.00" fill="#000000">∧</text>
</g>
<!-- 12&#45;&gt;11 -->
<g id="edge10" class="edge">
<title>12-&gt;11</title>
<path fill="none" stroke="#000000" d="M169.4249,-287.8314C182.1906,-276.6225 198.4702,-262.3282 211.0452,-251.2868"/>
<polygon fill="#000000" stroke="#000000" points="213.4944,-253.7939 218.6995,-244.5658 208.8758,-248.5338 213.4944,-253.7939"/>
</g>
<!-- &#45;3 -->
<g id="node11" class="node">
<title>-3</title>
<ellipse fill="none" stroke="#000000" cx="148.7329" cy="-234" rx="35.3257" ry="18"/>
<text text-anchor="middle" x="148.7329" y="-229.8" font-family="Times,serif" font-size="14.00" fill="#000000">¬calls</text>
</g>
<!-- 12&#45;&gt;&#45;3 -->
<g id="edge9" class="edge">
<title>12-&gt;-3</title>
<path fill="none" stroke="#000000" d="M148.7329,-287.8314C148.7329,-280.131 148.7329,-270.9743 148.7329,-262.4166"/>
<polygon fill="#000000" stroke="#000000" points="152.233,-262.4132 148.7329,-252.4133 145.233,-262.4133 152.233,-262.4132"/>
</g>
<!-- 13 -->
<g id="node12" class="node">
<title>13</title>
<polygon fill="#ffffff" stroke="#000000" points="112.7329,-180 58.7329,-180 58.7329,-144 112.7329,-144 112.7329,-180"/>
<text text-anchor="middle" x="85.7329" y="-157.8" font-family="Times,serif" font-size="14.00" fill="#000000">∧</text>
</g>
<!-- 13&#45;&gt;3 -->
<g id="edge11" class="edge">
<title>13-&gt;3</title>
<path fill="none" stroke="#000000" d="M71.3494,-143.8314C64.3091,-134.9385 55.7314,-124.1034 48.122,-114.4916"/>
<polygon fill="#000000" stroke="#000000" points="50.6985,-112.1073 41.7473,-106.4393 45.2102,-116.4522 50.6985,-112.1073"/>
</g>
<!-- 13&#45;&gt;6 -->
<g id="edge13" class="edge">
<title>13-&gt;6</title>
<path fill="none" stroke="#000000" d="M89.3467,-143.6742C93.0005,-125.4495 98.9228,-96.7177 104.7329,-72 106.7495,-63.4205 109.1015,-54.1172 111.2955,-45.6887"/>
<polygon fill="#000000" stroke="#000000" points="114.6983,-46.5108 113.8603,-35.9491 107.9291,-44.7281 114.6983,-46.5108"/>
</g>
<!-- 13&#45;&gt;8 -->
<g id="edge12" class="edge">
<title>13-&gt;8</title>
<path fill="none" stroke="#000000" d="M101.1257,-143.8314C108.7361,-134.8486 118.0253,-123.8843 126.2295,-114.2007"/>
<polygon fill="#000000" stroke="#000000" points="129.0114,-116.3316 132.8051,-106.4393 123.6705,-111.8067 129.0114,-116.3316"/>
</g>
<!-- 14 -->
<g id="node13" class="node">
<title>14</title>
<polygon fill="#ffffff" stroke="#000000" points="116.7329,-396 87.7011,-378 116.7329,-360 145.7647,-378 116.7329,-396"/>
<text text-anchor="middle" x="116.7329" y="-373.8" font-family="Times,serif" font-size="14.00" fill="#000000">∨</text>
</g>
<!-- 14&#45;&gt;12 -->
<g id="edge14" class="edge">
<title>14-&gt;12</title>
<path fill="none" stroke="#000000" d="M123.055,-363.7751C126.9319,-355.0523 132.0229,-343.5974 136.6487,-333.1893"/>
<polygon fill="#000000" stroke="#000000" points="139.8548,-334.5933 140.7179,-324.0336 133.4581,-331.7503 139.8548,-334.5933"/>
</g>
<!-- 14&#45;&gt;13 -->
<g id="edge15" class="edge">
<title>14-&gt;13</title>
<path fill="none" stroke="#000000" d="M114.3518,-361.4095C109.0753,-324.6444 96.3486,-235.9674 89.7903,-190.2714"/>
<polygon fill="#000000" stroke="#000000" points="93.2242,-189.5602 88.339,-180.1588 86.2952,-190.5547 93.2242,-189.5602"/>
</g>
</g>
</svg>