<svg class="svg-icon" style="width: 1em; height: 1em;vertical-align: middle;fill: currentColor;overflow: hidden;" viewBox="0 0 1024 1024" version="1.1" xmlns="http://www.w3.org/2000/svg"><path d="M943.79 483.61c-19.19-68.77-82.51-163.75-161.41-242.06-78.23-78.82-173.21-142.14-242-161.33a125.57 125.57 0 0 0-56.81 0c-68.77 19.19-163.75 82.51-242.05 161.4C162.72 319.85 99.4 414.83 80.21 483.6c-4.34 16.21-4.34 40.6 0 56.81 19.19 68.77 82.51 163.74 161.4 242 78.24 78.83 173.22 142.15 242 161.34a125.53 125.53 0 0 0 56.78 0c68.77-19.18 163.76-82.51 242.07-161.41 78.83-78.24 142.15-173.22 161.34-242 4.33-16.15 4.33-40.53-0.01-56.73zM504.95 799.44c-29.7 0-53.86-23.49-53.86-52.36s24.16-52.36 53.86-52.36 53.86 23.49 53.86 52.36-24.16 52.36-53.86 52.36z m117.7-307.37a335.43 335.43 0 0 1-49.12 41.26l-0.4 0.26c-26 16.64-36.52 25-36.52 64.17a88.59 88.59 0 0 0 0.54 9.78A33 33 0 0 1 508 644a33.25 33.25 0 0 1-3.68 0.21 32.91 32.91 0 0 1-32.73-29.31 154.91 154.91 0 0 1-0.95-17.09c0-30.64 5.35-53.77 16.83-72.78 10.18-16.86 25.07-30.83 49.8-46.73 23.74-15.84 72.58-59.37 72.58-93.29 0-53.37-34-84-93.27-84-31.52 0-61 13.36-81 36.65a33 33 0 1 1-50.06-42.88c32.49-37.93 80.26-59.68 131-59.68 45.94 0 85.27 13.71 113.76 39.64 29.82 27.03 45.53 65.16 45.53 110.26 0 35-17.89 71-53.16 107.07z" fill="#F9DB91" /><path d="M630.38 274.72c-28.48-25.93-67.82-39.64-113.76-39.64-50.79 0-98.56 21.75-131 59.68a33 33 0 1 0 50.06 42.88c20-23.29 49.47-36.65 81-36.65 59.27 0 93.27 30.61 93.27 84 0 33.92-48.84 77.45-72.58 93.29-24.73 15.9-39.62 29.88-49.8 46.73-11.48 19-16.83 42.14-16.83 72.78a154.91 154.91 0 0 0 0.95 17.09 32.91 32.91 0 0 0 32.73 29.31A33.25 33.25 0 0 0 508 644a33 33 0 0 0 29.1-36.41 88.59 88.59 0 0 1-0.54-9.78c0-39.21 10.54-47.53 36.52-64.17l0.4-0.26a335.43 335.43 0 0 0 49.12-41.26C657.92 456 675.81 420 675.81 385c0-45.1-15.71-83.23-45.43-110.28zM504.95 694.72c-29.7 0-53.86 23.49-53.86 52.36s24.16 52.36 53.86 52.36 53.86-23.49 53.86-52.36-24.16-52.36-53.86-52.36z" fill="#EF6A6A" /><path d="M956.33 480.18c-19.76-70.91-84-167.63-164.72-247.79-80.16-80.76-176.88-145-247.79-164.72C534.61 65.19 523.3 64 512 64s-22.61 1.24-31.82 3.71c-70.91 19.76-167.63 84-247.79 164.72-80.76 80.16-145 176.88-164.72 247.79-4.95 18.43-4.95 45.22 0 63.65 19.76 70.91 84 167.63 164.72 247.79 80.16 80.76 176.88 145 247.79 164.72 9.21 2.43 20.52 3.62 31.82 3.62s22.61-1.24 31.82-3.71c70.91-19.76 167.63-84 247.79-164.72 80.76-80.16 145-176.88 164.72-247.79 4.95-18.39 4.95-45.17 0-63.6zM931.25 537c-9 32.2-28.38 71.22-56.06 112.88-28.3 42.59-63.53 85.22-101.9 123.3l-0.14 0.14c-38.08 38.36-80.71 73.6-123.3 101.9-41.65 27.65-80.68 47.03-112.85 56.03a113 113 0 0 1-50 0c-32.2-9-71.22-28.38-112.88-56.06-42.59-28.3-85.22-63.53-123.3-101.9l-0.14-0.14c-38.36-38.08-73.6-80.71-101.9-123.3-27.65-41.65-47.04-80.68-56.03-112.85-3.74-14-3.74-35.91 0-49.94 9-32.2 28.38-71.23 56.06-112.89 28.3-42.59 63.53-85.22 101.9-123.3l0.14-0.14c38.08-38.36 80.71-73.6 123.3-101.9 41.65-27.68 80.68-47.06 112.87-56.06a113 113 0 0 1 50 0c32.2 9 71.22 28.38 112.88 56.06 42.59 28.3 85.22 63.53 123.3 101.9l0.14 0.14c38.36 38.08 73.6 80.71 101.9 123.3 27.68 41.66 47.06 80.69 56.06 112.88 3.7 14.01 3.7 35.89-0.05 49.95z" fill="#512C56" /><path d="M639.13 265.1c-30.92-28.15-73.28-43-122.51-43-54.59 0-106 23.41-140.92 64.22a46 46 0 1 0 69.8 59.8C463 325.69 488.91 314 516.62 314c36.62 0 80.27 12.31 80.27 71 0 24.74-38.68 63.7-66.7 82.41-26.45 17-42.55 32.25-53.81 50.89-12.76 21.13-18.7 46.39-18.7 79.5a167.84 167.84 0 0 0 1 18.53 46 46 0 0 0 91.35-10.19 75.45 75.45 0 0 1-0.46-8.34c0-32.43 5.83-37.4 30.53-53.23h0.12l0.33-0.22h0.12a344.44 344.44 0 0 0 51.23-43c37.73-38.55 56.87-77.64 56.87-116.2 0-24-4.18-46.31-12.42-66.46a146.8 146.8 0 0 0-37.22-53.59zM613.36 483a321.47 321.47 0 0 1-47 39.51l-0.25 0.16c-29.6 19-42.51 31-42.51 75.12a101.55 101.55 0 0 0 0.62 11.22 20 20 0 0 1-17.62 22 20.18 20.18 0 0 1-2.24 0.12 20 20 0 0 1-19.81-17.75 141.74 141.74 0 0 1-0.87-15.64c0-57.73 19.63-82.22 60.74-108.63 21.91-14.59 78.46-61.56 78.46-104.17 0-60.72-39.73-97-106.27-97-35.32 0-68.44 15-90.86 41.19a20 20 0 0 1-30.31-26c30-35 74.19-55.14 121.18-55.14 42.65 0 79 12.54 105 36.26 26.94 24.53 41.18 59.33 41.18 100.63 0.01 31.6-16.63 64.58-49.44 98.12zM504.95 681.72c-36.87 0-66.86 29.32-66.86 65.36s30 65.36 66.86 65.36 66.86-29.32 66.86-65.36-29.99-65.36-66.86-65.36z m0 104.72c-22.57 0-40.86-17.62-40.86-39.36s18.29-39.36 40.86-39.36 40.86 17.62 40.86 39.36-18.3 39.36-40.86 39.36z" fill="#512C56" /></svg>