<?xml version="1.0" encoding="UTF-8" standalone="no"?>
<!DOCTYPE svg PUBLIC "-//W3C//DTD SVG 1.1//EN" "http://www.w3.org/Graphics/SVG/1.1/DTD/svg11.dtd">
<svg width="100%" height="100%" viewBox="0 0 1024 1024" version="1.1" xmlns="http://www.w3.org/2000/svg" xmlns:xlink="http://www.w3.org/1999/xlink" xml:space="preserve" xmlns:serif="http://www.serif.com/" style="fill-rule:evenodd;clip-rule:evenodd;stroke-linejoin:round;stroke-miterlimit:2;">
    <g transform="matrix(0.730395,0,0,0.782046,346.811,-97.2852)">
        <g transform="matrix(0.180338,0,0,0.177814,132.125,154.789)">
            <path d="M836.949,387.898C836.949,213.66 695.7,72.412 521.462,72.412C347.223,72.412 205.975,213.664 205.975,387.898C205.975,490.87 255.325,582.299 331.645,639.879L331.623,639.879L331.676,639.901C340.513,646.569 349.696,652.766 359.187,658.467C395.239,689.544 453.858,766.391 453.858,937.585L553.584,937.585C553.584,937.585 576.712,742.013 695.564,650.969C700.853,647.475 706.033,643.82 711.099,640.01C711.169,639.971 711.235,639.918 711.305,639.879L711.274,639.879C787.599,582.299 836.949,490.874 836.949,387.898Z" style="fill:rgb(255,215,94);fill-rule:nonzero;"/>
        </g>
        <g transform="matrix(0.180338,0,0,0.177814,132.125,154.789)">
            <path d="M507.546,98.071C507.546,98.071 241.927,171.716 298.668,430.838C355.41,689.961 454.407,583.664 454.407,766.444L454.407,974.624L379.113,898.181L379.113,762.057L406.15,713.8C406.15,713.8 229.082,615.25 229.082,506.593C229.082,397.936 161.469,122.845 507.546,98.071Z" style="fill:white;fill-opacity:0.25;fill-rule:nonzero;"/>
        </g>
        <g transform="matrix(0.180338,0,0,0.177814,132.125,154.789)">
            <path d="M858.883,387.898C858.883,201.841 707.515,50.477 521.462,50.477C335.405,50.477 184.04,201.846 184.04,387.898C184.04,494.726 233.026,592.951 318.436,657.392C312.943,653.251 309.706,646.758 309.706,639.879C309.706,627.848 319.606,617.948 331.636,617.948C331.639,617.948 331.642,617.948 331.645,617.948C321.168,617.949 312.079,625.45 310.092,635.737C308.109,646.019 313.752,656.358 323.472,660.252C321.68,659.534 319.992,658.58 318.454,657.414C327.906,664.542 337.726,671.169 347.873,677.269C346.808,676.629 345.8,675.899 344.859,675.089C377.375,703.117 431.919,774.489 431.919,937.594C431.919,949.627 441.821,959.529 453.854,959.529L553.579,959.529C564.644,959.528 574.064,951.157 575.365,940.169C575.584,938.318 598.967,752.603 708.901,668.394C708.502,668.694 708.095,668.984 707.681,669.263C713.343,665.523 718.888,661.61 724.308,657.528C723.86,657.866 723.399,658.186 722.926,658.488C729.333,654.484 733.236,647.442 733.236,639.888C733.236,627.854 723.334,617.953 711.301,617.953C711.299,617.953 711.298,617.953 711.296,617.953C720.724,617.953 729.085,623.98 732.077,632.921C735.069,641.862 732.003,651.719 724.479,657.396C809.898,592.955 858.883,494.726 858.883,387.898ZM711.273,661.818L711.309,661.818C701.554,661.816 692.916,655.309 690.221,645.933C687.619,636.858 691.152,627.075 698.951,621.756C698.588,621.996 698.233,622.246 697.885,622.506C693.176,626.047 688.36,629.443 683.443,632.689C683.028,632.966 682.621,633.255 682.223,633.557C557.453,729.137 532.789,926.653 531.798,935.014C533.099,924.026 542.519,915.655 553.584,915.654L453.858,915.654C465.891,915.654 475.793,925.556 475.793,937.589C475.793,756.994 411.708,674.786 373.51,641.857C372.571,641.044 371.563,640.315 370.497,639.677C361.669,634.368 353.124,628.601 344.898,622.401C351.556,627.434 354.782,635.853 353.194,644.046C351.199,654.333 342.106,661.828 331.628,661.823C341.055,661.823 349.443,655.795 352.44,646.854C355.436,637.913 352.391,628.056 344.863,622.379C270.534,566.296 227.91,480.837 227.91,387.898C227.91,226.036 359.599,94.347 521.462,94.347C683.325,94.347 815.014,226.036 815.014,387.898C815.014,480.837 772.385,566.296 698.065,622.37C692.573,626.512 689.338,633.005 689.338,639.883C689.338,651.916 699.239,661.818 711.273,661.818Z" style="fill:rgb(110,110,150);fill-rule:nonzero;"/>
        </g>
        <g transform="matrix(0.180338,0,0,0.177814,132.125,154.789)">
            <path d="M482.54,1002.07L541.949,1002.07C571.132,1002.07 594.795,978.406 594.795,949.224C594.795,920.041 571.132,896.378 541.949,896.378L482.54,896.378C453.354,896.378 429.699,920.041 429.699,949.224C429.699,978.406 453.354,1002.07 482.54,1002.07Z" style="fill:rgb(238,238,252);fill-rule:nonzero;"/>
        </g>
        <g transform="matrix(0.180338,0,0,0.177814,132.125,154.789)">
            <path d="M482.54,1024L541.949,1024C583.183,1024 616.73,990.457 616.73,949.224C616.73,907.99 583.187,874.443 541.949,874.443L482.54,874.443C441.307,874.443 407.764,907.986 407.764,949.224C407.76,990.457 441.307,1024 482.54,1024ZM482.54,980.13C465.497,980.13 451.634,966.267 451.634,949.224C451.634,932.18 465.501,918.313 482.54,918.313L541.949,918.313C558.993,918.313 572.86,932.18 572.86,949.224C572.86,966.267 558.993,980.13 541.949,980.13L482.54,980.13Z" style="fill:rgb(110,110,150);fill-rule:nonzero;"/>
        </g>
        <g transform="matrix(0.180338,0,0,0.177814,132.125,154.789)">
            <path d="M636.844,821.18C652.975,812.134 663.89,794.898 663.89,775.086C663.89,745.904 640.227,722.245 611.049,722.245L421.96,722.245C392.778,722.245 369.119,745.904 369.119,775.086C369.119,794.898 380.034,812.134 396.165,821.18C380.034,830.231 369.119,847.467 369.119,867.279C369.119,896.461 392.778,920.12 421.96,920.12L611.049,920.12C640.227,920.12 663.89,896.461 663.89,867.279C663.89,847.467 652.975,830.231 636.844,821.18Z" style="fill:rgb(238,238,252);fill-rule:nonzero;"/>
        </g>
        <g transform="matrix(0.180338,0,0,0.177814,132.125,154.789)">
            <path d="M647.571,840.312C671.138,827.094 685.793,802.107 685.825,775.086C685.825,733.857 652.282,700.31 611.049,700.31L421.96,700.31C380.731,700.31 347.184,733.853 347.184,775.086C347.214,802.107 361.868,827.094 385.434,840.312C378.524,836.436 374.23,829.105 374.23,821.181C374.23,813.26 378.522,805.93 385.43,802.053C361.868,815.276 347.218,840.261 347.184,867.279C347.184,908.508 380.727,942.055 421.96,942.055L611.049,942.055C652.278,942.055 685.825,908.512 685.825,867.279C685.793,840.259 671.14,815.272 647.575,802.053C654.483,805.93 658.774,813.26 658.774,821.181C658.774,829.105 654.481,836.436 647.571,840.312ZM641.955,867.279C641.938,884.227 627.997,898.168 611.049,898.185L421.96,898.185C405.012,898.168 391.071,884.227 391.054,867.279C391.078,856.103 397.146,845.774 406.895,840.312C413.804,836.435 418.095,829.105 418.095,821.184C418.095,813.26 413.802,805.929 406.891,802.053C397.141,796.594 391.074,786.265 391.054,775.09C391.071,758.142 405.012,744.201 421.96,744.184L611.049,744.184C627.997,744.201 641.938,758.142 641.955,775.09C641.933,786.264 635.866,796.592 626.118,802.053C619.21,805.931 614.919,813.261 614.919,821.184C614.919,829.104 619.208,836.433 626.114,840.312C635.864,845.773 641.932,856.103 641.955,867.279Z" style="fill:rgb(110,110,150);fill-rule:nonzero;"/>
        </g>
        <g transform="matrix(0.180338,0,0,0.177814,132.125,154.789)">
            <path d="M636.853,799.241L520.212,799.241C508.178,799.241 498.277,809.143 498.277,821.176C498.277,833.209 508.178,843.111 520.212,843.111L636.853,843.111C648.97,843.111 658.788,833.293 658.788,821.176C658.788,809.059 648.97,799.241 636.853,799.241Z" style="fill:rgb(110,110,150);fill-rule:nonzero;"/>
        </g>
        <g transform="matrix(0.348261,0,0,0.307972,153.128,68.4118)">
            <g transform="matrix(0.251101,0,0,0.231277,91.371,407.497)">
                <path d="M512,66.867C498.701,66.867 487.936,77.632 487.936,90.931L487.936,716.531C487.936,756.378 455.603,788.71 415.757,788.71C375.885,788.71 343.578,756.378 343.578,716.531C343.578,703.232 332.787,692.467 319.514,692.467C306.214,692.467 295.45,703.232 295.45,716.531C295.45,782.989 349.312,836.838 415.757,836.838C482.202,836.838 536.064,782.976 536.064,716.531L536.064,90.918C536.064,77.619 525.274,66.867 512,66.867Z" style="fill:rgb(128,128,128);fill-rule:nonzero;"/>
            </g>
            <g transform="matrix(0.251101,0,0,0.231277,91.371,407.497)">
                <path d="M776.678,427.789C843.123,427.789 896.986,460.096 896.986,499.968C896.986,287.334 724.608,114.982 512,114.982C299.366,114.982 127.014,287.334 127.014,499.968C127.014,460.096 180.877,427.789 247.322,427.789C313.766,427.789 367.629,460.096 367.629,499.968C367.629,460.096 432.269,427.789 512,427.789C591.731,427.789 656.371,460.096 656.371,499.968C656.371,460.096 710.221,427.789 776.678,427.789Z" style="fill:rgb(136,192,87);fill-rule:nonzero;"/>
            </g>
            <g transform="matrix(0.251101,0,0,0.231277,91.371,407.497)">
                <path d="M512,427.789C591.731,427.789 656.371,460.096 656.371,499.968C656.371,287.334 591.731,114.982 512,114.982C432.269,114.982 367.629,287.334 367.629,499.968C367.629,460.096 432.269,427.789 512,427.789Z" style="fill:rgb(117,166,75);fill-rule:nonzero;"/>
            </g>
        </g>
        <g transform="matrix(0.180338,0,0,0.177814,132.122,156.678)">
            <path d="M490.095,96.027C490.095,96.027 713.139,108.596 713.139,319.071C713.139,529.546 520.207,494.454 520.207,788.383L520.207,1001.87C520.207,1001.87 611.044,985.925 611.044,942.055C611.044,898.185 668.997,913.373 663.886,867.279C658.775,821.185 668.997,832.6 663.886,775.086C658.775,717.573 631.483,704.666 690.217,645.933C748.95,587.2 884.328,433.036 783.427,222.46C682.526,11.884 509.604,115.532 490.095,96.027Z" style="fill:rgb(110,110,150);fill-opacity:0.1;fill-rule:nonzero;"/>
        </g>
        <g transform="matrix(0.180338,0,0,0.177814,131.689,160.84)">
            <path d="M467.568,334.013C448.69,386.446 442.566,417.3 402.675,402.937C362.78,388.574 345.745,334.425 364.627,281.996C383.504,229.563 431.151,198.709 471.042,213.072C510.937,227.435 486.449,281.584 467.568,334.013Z" style="fill:white;fill-opacity:0.4;fill-rule:nonzero;"/>
        </g>
    </g>
    <g transform="matrix(1.18277,0,0,1.11991,-9.56517,-11.0274)">
        <g transform="matrix(0.236922,0,0,0.213009,319.664,155.867)">
            <path d="M684.885,756.736L671.061,756.736C615.887,756.642 570.539,711.217 570.539,656.043L570.539,611.328L457.728,611.328L457.728,656.043C457.728,656.1 457.728,656.156 457.728,656.213C457.728,711.358 412.351,756.736 357.205,756.736L339.115,756.736C339.058,756.736 339.001,756.736 338.944,756.736C261.797,756.736 198.315,820.218 198.315,897.365L198.315,927.232L825.685,927.232L825.685,897.365C825.685,820.218 762.203,756.736 685.056,756.736C684.999,756.736 684.942,756.736 684.885,756.736Z" style="fill:rgb(252,254,255);fill-rule:nonzero;"/>
        </g>
        <g transform="matrix(0.236922,0,0,0.213009,319.664,155.867)">
            <path d="M604.331,927.232L580.267,845.824C593.07,845.855 604.148,836.586 606.379,823.979L620.544,743.253C599.515,730.988 583.533,711.617 575.488,688.64L452.267,688.64C443.827,713.152 426.283,733.507 403.285,745.472L417.109,823.979C419.37,836.775 430.742,846.106 443.733,845.824L419.328,927.232L604.331,927.232Z" style="fill:rgb(216,227,240);fill-rule:nonzero;"/>
        </g>
        <g transform="matrix(0.236922,0,0,0.213009,319.664,155.867)">
            <path d="M825.685,870.4C796.204,883.339 764.356,890.023 732.16,890.027L291.84,890.027C259.644,890.023 227.796,883.339 198.315,870.4L198.315,926.549L825.685,926.549L825.685,870.4Z" style="fill:rgb(216,227,240);fill-rule:nonzero;"/>
        </g>
        <g transform="matrix(0.236922,0,0,0.213009,319.664,155.867)">
            <path d="M456.021,782.165L567.979,782.165L556.203,849.067L467.797,849.067L456.021,782.165Z" style="fill:rgb(105,186,249);fill-rule:nonzero;"/>
        </g>
        <g transform="matrix(0.236922,0,0,0.213009,319.664,155.867)">
            <path d="M624.64,665.259L512,769.024L588.117,845.141L656.555,720.213L624.64,665.259ZM399.36,665.259L512,769.024L435.883,845.141L367.445,720.213L399.36,665.259Z" style="fill:rgb(252,254,255);fill-rule:nonzero;"/>
        </g>
        <g transform="matrix(0.236922,0,0,0.213009,319.664,155.867)">
            <path d="M556.203,927.232L532.821,849.067L491.179,849.067L467.797,927.232L556.203,927.232Z" style="fill:rgb(105,186,249);fill-rule:nonzero;"/>
        </g>
        <g transform="matrix(0.236922,0,0,0.213009,319.664,155.867)">
            <path d="M699.733,326.997L699.733,518.144C698.716,619.391 615.139,702.132 513.887,702.132C513.258,702.132 512.629,702.129 512,702.123C511.371,702.129 510.742,702.132 510.113,702.132C408.861,702.132 325.284,619.391 324.267,518.144L324.267,326.997" style="fill:rgb(255,222,173);fill-rule:nonzero;"/>
        </g>
        <g transform="matrix(0.236922,0,0,0.213009,319.664,155.867)">
            <path d="M643.584,326.997L643.584,518.144C642.911,609.506 574.529,687.323 484.011,699.733C493.269,701.221 502.624,702.019 512,702.123C512.629,702.129 513.258,702.132 513.887,702.132C615.139,702.132 698.716,619.391 699.733,518.144L699.733,326.997L643.584,326.997Z" style="fill:rgb(255,198,112);fill-rule:nonzero;"/>
        </g>
        <g transform="matrix(0.236922,0,0,0.213009,319.664,155.867)">
            <rect x="244.907" y="265.557" width="534.357" height="73.045" style="fill:rgb(246,113,111);fill-rule:nonzero;"/>
        </g>
        <g transform="matrix(0.236922,0,0,0.213009,319.664,155.867)">
            <path d="M742.571,265.557L670.379,265.557C689.521,266.865 704.571,282.978 704.571,302.165C704.571,321.353 689.521,337.466 670.379,338.773L742.571,338.773C761.713,337.466 776.763,321.353 776.763,302.165C776.763,282.978 761.713,266.865 742.571,265.557Z" style="fill:rgb(240,80,77);fill-rule:nonzero;"/>
        </g>
        <g transform="matrix(0.236922,0,0,0.213009,319.664,155.867)">
            <path d="M281.429,265.557L353.621,265.557C334.479,266.865 319.429,282.978 319.429,302.165C319.429,321.353 334.479,337.466 353.621,338.773L281.429,338.773C262.287,337.466 247.237,321.353 247.237,302.165C247.237,282.978 262.287,266.865 281.429,265.557Z" style="fill:rgb(246,162,162);fill-rule:nonzero;"/>
        </g>
        <g transform="matrix(0.236922,0,0,0.213009,319.664,155.867)">
            <path d="M599.04,100.181L543.744,119.467C523.192,126.632 500.808,126.632 480.256,119.467L424.96,100.181C418.319,97.876 411.339,96.699 404.309,96.699C369.762,96.699 341.333,125.128 341.333,159.675C341.333,159.698 341.333,159.721 341.333,159.744L341.333,265.557L682.667,265.557L682.667,159.744C682.667,159.721 682.667,159.698 682.667,159.675C682.667,125.128 654.238,96.699 619.691,96.699C612.661,96.699 605.681,97.876 599.04,100.181Z" style="fill:rgb(246,113,111);fill-rule:nonzero;"/>
        </g>
        <g transform="matrix(0.236922,0,0,0.213009,319.664,155.867)">
            <path d="M599.04,100.181L588.288,103.765C609.189,114.577 622.381,136.212 622.421,159.744L622.421,265.557L682.667,265.557L682.667,159.744C682.667,159.721 682.667,159.698 682.667,159.675C682.667,125.128 654.238,96.699 619.691,96.699C612.661,96.699 605.681,97.876 599.04,100.181Z" style="fill:rgb(240,80,77);fill-rule:nonzero;"/>
        </g>
        <g transform="matrix(0.236922,0,0,0.213009,319.664,155.867)">
            <path d="M424.96,100.181L435.712,103.765C414.811,114.577 401.619,136.212 401.579,159.744L401.579,265.557L341.333,265.557L341.333,159.744C341.333,159.721 341.333,159.698 341.333,159.675C341.333,125.128 369.762,96.699 404.309,96.699C411.339,96.699 418.319,97.876 424.96,100.181Z" style="fill:rgb(246,162,162);fill-rule:nonzero;"/>
        </g>
        <g transform="matrix(0.236922,0,0,0.213009,319.664,155.867)">
            <rect x="341.504" y="203.776" width="340.992" height="61.781" style="fill:rgb(252,254,255);fill-rule:nonzero;"/>
        </g>
        <g transform="matrix(0.236922,0,0,0.213009,319.664,155.867)">
            <path d="M324.267,508.587L324.267,391.509L287.232,391.509C269.782,390.84 254.857,404.611 254.123,422.059L254.123,443.733C255.953,480.6 287.37,509.647 324.267,508.587ZM699.733,508.587L699.733,391.509L736.939,391.509C754.389,390.84 769.314,404.611 770.048,422.059L770.048,443.733C768.217,480.666 736.694,509.741 699.733,508.587Z" style="fill:rgb(255,198,112);fill-rule:nonzero;"/>
        </g>
        <g transform="matrix(0.236922,0,0,0.213009,319.664,155.867)">
            <path d="M888.491,910.165L842.752,910.165L842.752,897.365C842.658,810.827 771.424,739.669 684.885,739.669L665.6,739.669L671.573,728.917C674.618,723.643 674.618,717.125 671.573,711.851L646.997,669.184C689.587,632.796 714.941,580.104 716.8,524.117C756.3,517.678 785.914,483.742 786.944,443.733L786.944,422.059C786.205,395.25 763.578,373.778 736.768,374.443L716.8,374.443L716.8,355.84L742.741,355.84C771.047,354.243 793.473,330.516 793.473,302.165C793.473,273.815 771.047,250.087 742.741,248.491L699.733,248.491L699.733,159.744C699.733,159.726 699.733,159.708 699.733,159.69C699.733,115.78 663.601,79.648 619.691,79.648C610.865,79.648 602.099,81.108 593.749,83.968L538.283,102.4C521.244,108.199 502.756,108.199 485.717,102.4L430.421,83.968C422.021,81.069 413.196,79.589 404.309,79.589C360.399,79.589 324.267,115.722 324.267,159.632C324.267,159.669 324.267,159.707 324.267,159.744L324.267,248.491L281.429,248.491C253.124,250.087 230.697,273.815 230.697,302.165C230.697,330.516 253.124,354.243 281.429,355.84L307.2,355.84L307.2,374.443L287.232,374.443C260.422,373.778 237.795,395.25 237.056,422.059L237.056,443.733C238.086,483.742 267.7,517.678 307.2,524.117C309.063,580.017 334.349,632.634 376.832,669.013L352.256,711.68C349.211,716.954 349.211,723.473 352.256,728.747L358.4,739.84L339.115,739.84C252.576,739.84 181.342,810.997 181.248,897.536L181.248,910.336L135.509,910.336C135.508,910.336 135.507,910.336 135.505,910.336C126.143,910.336 118.439,918.04 118.439,927.403C118.439,936.765 126.143,944.469 135.505,944.469C135.507,944.469 135.508,944.469 135.509,944.469L888.491,944.469C897.852,944.467 905.553,936.764 905.553,927.403C905.553,918.042 897.852,910.338 888.491,910.336L888.491,910.165ZM307.2,488.789C286.682,483.291 272.03,464.958 271.189,443.733L271.189,422.059C271.907,413.968 279.138,407.891 287.232,408.576L307.2,408.576L307.2,488.789ZM636.928,720.384L584.192,816.981L536.576,769.536L620.544,692.224L636.928,720.384ZM736.768,408.576C744.862,407.891 752.093,413.968 752.811,422.059L752.811,443.733C751.97,464.958 737.318,483.291 716.8,488.789L716.8,408.576L736.768,408.576ZM358.4,159.744C358.292,144.886 365.514,130.89 377.685,122.368C389.744,113.709 405.283,111.417 419.328,116.224L474.453,135.168C498.693,143.36 524.966,143.36 549.205,135.168L604.331,116.224C618.376,111.417 633.915,113.709 645.973,122.368C658.274,130.814 665.63,144.823 665.6,159.744L665.6,186.709L358.4,186.709L358.4,159.744ZM358.4,220.843L665.6,220.843L665.6,248.491L358.4,248.491L358.4,220.843ZM281.259,321.707C271.224,320.768 263.46,312.244 263.46,302.165C263.46,292.087 271.224,283.563 281.259,282.624L742.059,282.624C752.094,283.563 759.857,292.087 759.857,302.165C759.857,312.244 752.094,320.768 742.059,321.707L281.259,321.707ZM341.333,518.144L341.333,355.84L682.667,355.84L682.667,518.144C682.667,611.769 605.625,688.811 512,688.811C418.375,688.811 341.333,611.769 341.333,518.144ZM512,719.189C522.682,719.177 533.35,718.379 543.915,716.8L512,745.813L480.085,716.8C490.65,718.379 501.318,719.177 512,719.189ZM487.424,770.389L439.808,817.835L387.072,721.237L404.139,693.077L487.424,770.389ZM455.168,911.019L215.381,911.019L215.381,898.219C215.475,830.405 271.301,774.656 339.115,774.656L357.205,774.656C363.612,774.601 370.005,774.03 376.32,772.949L420.864,853.333C423.383,858.088 428.006,861.381 433.323,862.208L435.883,862.208C440.383,862.144 444.679,860.302 447.829,857.088L451.584,853.504C453.621,860.772 460.25,865.865 467.797,865.963L455.168,911.019ZM490.837,911.019L503.979,866.987L520.021,866.987L533.163,911.019L490.837,911.019ZM542.037,832.853L482.304,832.853L480.939,825.173L512,793.259L543.232,824.32L542.037,832.853ZM808.789,911.019L568.832,911.019L555.691,866.987C563.238,866.889 569.867,861.796 571.904,854.528L575.659,858.112C578.809,861.326 583.105,863.168 587.605,863.232L590.165,863.232C595.482,862.405 600.105,859.112 602.624,854.357L648.533,771.243C656.051,772.862 663.713,773.719 671.403,773.803L685.227,773.803C753.04,773.803 808.866,829.552 808.96,897.365L808.789,911.019Z" style="fill:rgb(61,61,99);fill-rule:nonzero;"/>
        </g>
        <g transform="matrix(0.236922,0,0,0.213009,319.664,155.867)">
            <path d="M445.099,554.667C438.853,557.359 434.787,563.538 434.787,570.34C434.787,572.699 435.276,575.034 436.224,577.195C449.299,607.325 479.155,626.916 512,626.916C544.845,626.916 574.701,607.325 587.776,577.195C588.757,574.992 589.265,572.608 589.265,570.197C589.265,560.767 581.505,553.007 572.075,553.007C565.3,553.007 559.131,557.012 556.373,563.2C548.766,580.899 531.265,592.426 512,592.426C492.735,592.426 475.234,580.899 467.627,563.2C463.775,554.694 453.62,550.847 445.099,554.667ZM436.224,453.973C445.586,453.973 453.291,446.269 453.291,436.907L453.291,417.28C453.291,407.918 445.586,400.213 436.224,400.213C426.862,400.213 419.157,407.918 419.157,417.28L419.157,436.907C419.157,446.269 426.862,453.973 436.224,453.973ZM587.776,453.973C597.138,453.973 604.843,446.269 604.843,436.907L604.843,417.28C604.843,407.918 597.138,400.213 587.776,400.213C578.414,400.213 570.709,407.918 570.709,417.28L570.709,436.907C570.709,446.269 578.414,453.973 587.776,453.973Z" style="fill:rgb(61,61,99);fill-rule:nonzero;"/>
        </g>
    </g>
    <g transform="matrix(1.44452,0,0,1.36774,194.3,175.153)">
        <g transform="matrix(0.251101,0,0,0.231277,91.371,407.497)">
            <path d="M512,66.867C498.701,66.867 487.936,77.632 487.936,90.931L487.936,716.531C487.936,756.378 455.603,788.71 415.757,788.71C375.885,788.71 343.578,756.378 343.578,716.531C343.578,703.232 332.787,692.467 319.514,692.467C306.214,692.467 295.45,703.232 295.45,716.531C295.45,782.989 349.312,836.838 415.757,836.838C482.202,836.838 536.064,782.976 536.064,716.531L536.064,90.918C536.064,77.619 525.274,66.867 512,66.867Z" style="fill:rgb(128,128,128);fill-rule:nonzero;"/>
        </g>
        <g transform="matrix(0.251101,0,0,0.231277,91.371,407.497)">
            <path d="M776.678,427.789C843.123,427.789 896.986,460.096 896.986,499.968C896.986,287.334 724.608,114.982 512,114.982C299.366,114.982 127.014,287.334 127.014,499.968C127.014,460.096 180.877,427.789 247.322,427.789C313.766,427.789 367.629,460.096 367.629,499.968C367.629,460.096 432.269,427.789 512,427.789C591.731,427.789 656.371,460.096 656.371,499.968C656.371,460.096 710.221,427.789 776.678,427.789Z" style="fill:rgb(136,192,87);fill-rule:nonzero;"/>
        </g>
        <g transform="matrix(0.251101,0,0,0.231277,91.371,407.497)">
            <path d="M512,427.789C591.731,427.789 656.371,460.096 656.371,499.968C656.371,287.334 591.731,114.982 512,114.982C432.269,114.982 367.629,287.334 367.629,499.968C367.629,460.096 432.269,427.789 512,427.789Z" style="fill:rgb(117,166,75);fill-rule:nonzero;"/>
        </g>
    </g>
    <g transform="matrix(0.837509,0,0,0.792996,101.029,-307.539)">
        <g transform="matrix(0.251237,0,0,0.229631,592.401,379.709)">
            <path d="M274.272,917.536L328.768,863.04C332.094,859.714 336.609,857.844 341.312,857.844C351.044,857.844 359.052,865.852 359.052,875.584C359.052,880.287 357.182,884.802 353.856,888.128L299.36,942.624C296.034,945.95 291.519,947.82 286.816,947.82C277.084,947.82 269.076,939.812 269.076,930.08C269.076,925.377 270.946,920.862 274.272,917.536ZM270.688,738.304C274.014,734.978 278.529,733.108 283.232,733.108C292.964,733.108 300.972,741.116 300.972,750.848C300.972,755.551 299.102,760.066 295.776,763.392L241.28,817.888C237.954,821.214 233.439,823.084 228.736,823.084C219.004,823.084 210.996,815.076 210.996,805.344C210.996,800.641 212.866,796.126 216.192,792.8L270.688,738.304ZM489.664,917.536L544.16,863.04C547.486,859.714 552.001,857.844 556.704,857.844C566.436,857.844 574.444,865.852 574.444,875.584C574.444,880.287 572.574,884.802 569.248,888.128L514.752,942.624C511.426,945.95 506.911,947.82 502.208,947.82C492.476,947.82 484.468,939.812 484.468,930.08C484.468,925.377 486.338,920.862 489.664,917.536ZM486.112,738.304C489.438,734.978 493.953,733.108 498.656,733.108C508.388,733.108 516.396,741.116 516.396,750.848C516.396,755.551 514.526,760.066 511.2,763.392L456.704,817.888C453.378,821.214 448.863,823.084 444.16,823.084C434.428,823.084 426.42,815.076 426.42,805.344C426.42,800.641 428.29,796.126 431.616,792.8L486.112,738.304ZM701.504,738.304C704.83,734.978 709.345,733.108 714.048,733.108C723.78,733.108 731.788,741.116 731.788,750.848C731.788,755.551 729.918,760.066 726.592,763.392L672.096,817.888C668.77,821.214 664.255,823.084 659.552,823.084C649.82,823.084 641.812,815.076 641.812,805.344C641.812,800.641 643.682,796.126 647.008,792.8L701.504,738.304Z" style="fill:rgb(67,163,251);fill-rule:nonzero;"/>
        </g>
        <g transform="matrix(0.251237,0,0,0.229631,592.401,379.709)">
            <path d="M243.776,664.256C175.168,664.256 119.36,608.736 119.36,540.448C119.36,472.544 174.592,417.216 242.688,416.64C251.808,298.08 351.648,204.384 473.056,204.384C554.976,204.384 629.632,246.944 671.296,316.448C686.057,312.513 701.267,310.512 716.544,310.496C814.56,310.496 894.272,389.824 894.272,487.36C894.272,584.896 814.56,664.224 716.544,664.224L243.776,664.224L243.776,664.256Z" style="fill:rgb(73,80,96);fill-rule:nonzero;"/>
        </g>
    </g>
    <g transform="matrix(1.19641,0,0,1.13283,-26.7913,-786.566)">
        <g transform="matrix(0.186605,0.744979,-0.744979,0.186605,765.599,417.189)">
            <g transform="matrix(1,0,0,1,61.739,-67.7038)">
                <g transform="matrix(0.137541,0,0,0.144897,141.96,705.824)">
                    <path d="M530.223,399.187L530.223,104.136L669.071,130.169L669.071,373.153L530.223,399.187ZM391.377,78.102L391.377,425.221L217.818,251.662L391.377,78.102ZM946.765,321.085L807.917,347.119L807.917,156.203L946.765,182.237L946.765,321.085Z" style="fill:rgb(255,116,116);fill-rule:nonzero;"/>
                </g>
                <g transform="matrix(0.137541,0,0,0.144897,141.96,705.824)">
                    <path d="M391.377,425.221L530.225,399.187L530.225,104.136L391.377,78.102L391.377,425.221ZM669.071,373.153L669.071,130.169L807.919,156.203L807.919,347.119L669.071,373.153Z" style="fill:rgb(236,244,247);fill-rule:nonzero;"/>
                </g>
            </g>
            <g transform="matrix(0.137541,0,0,0.144897,202.744,638.12)">
                <path d="M391.377,433.897C387.905,433.897 386.17,432.162 384.435,432.162L280.299,328.027C276.828,324.555 276.828,319.348 280.299,315.878C283.771,312.409 288.978,312.407 292.448,315.878L380.963,404.394L380.963,98.929L292.448,187.444C288.976,190.916 283.769,190.916 280.299,187.444C276.828,183.972 276.828,178.765 280.299,175.295L384.435,71.16C386.17,69.425 387.907,69.425 389.642,69.425L391.377,69.425L946.767,173.561C950.239,173.561 953.709,178.767 953.709,182.239L953.709,321.087C953.709,324.559 950.237,328.029 946.767,329.766L391.377,433.897C393.112,433.897 391.377,433.897 391.377,433.897ZM400.053,88.515L400.053,414.807L938.086,314.144L938.086,189.181L400.053,88.515ZM530.223,347.119C525.016,347.119 521.544,343.647 521.544,338.44L521.544,164.882C521.544,159.675 525.016,156.203 530.223,156.203C535.429,156.203 538.901,159.675 538.901,164.882L538.901,338.44C538.901,343.647 535.429,347.119 530.223,347.119ZM669.071,321.085C663.864,321.085 660.392,317.613 660.392,312.407L660.392,190.916C660.392,185.709 663.864,182.237 669.071,182.237C674.278,182.237 677.749,185.709 677.749,190.916L677.749,312.407C677.749,317.613 674.278,321.085 669.071,321.085ZM807.919,295.051C802.712,295.051 799.24,291.579 799.24,286.373L799.24,216.95C799.24,211.743 802.712,208.271 807.919,208.271C813.126,208.271 816.597,211.743 816.597,216.95L816.597,286.373C816.595,291.579 813.126,295.051 807.919,295.051Z" style="fill:rgb(81,86,95);fill-rule:nonzero;"/>
            </g>
        </g>
        <g>
            <g transform="matrix(0.137541,0,0,0.144897,274.12,705.824)">
                <path d="M217.816,78.102C198.724,78.102 183.104,62.481 183.104,43.389C183.104,24.297 198.724,8.677 217.816,8.677C236.908,8.677 252.529,24.297 252.529,43.389C252.529,62.481 236.908,78.102 217.816,78.102" style="fill:rgb(170,177,186);fill-rule:nonzero;"/>
            </g>
            <g transform="matrix(0.137541,0,0,0.144897,274.12,707.081)">
                <path d="M356.664,1024L78.97,1024C73.763,1024 70.291,1020.53 70.291,1015.32C70.291,1010.12 73.763,1006.64 78.97,1006.64L209.14,1006.64L209.14,85.043C190.047,81.571 174.427,64.216 174.427,43.389C174.427,19.092 193.519,0 217.816,0C242.113,0 261.205,19.092 261.205,43.389C261.205,64.216 245.585,81.571 226.493,85.043L226.493,1006.64L356.662,1006.64C361.869,1006.64 365.341,1010.12 365.341,1015.32C365.343,1020.53 361.871,1024 356.664,1024ZM217.816,17.355C203.931,17.355 191.782,29.504 191.782,43.389C191.782,57.275 203.931,69.423 217.816,69.423C231.702,69.423 243.85,57.275 243.85,43.389C243.85,29.504 231.702,17.355 217.816,17.355Z" style="fill:rgb(81,86,95);fill-rule:nonzero;"/>
            </g>
        </g>
    </g>
    <g transform="matrix(4.04473e-17,-0.6788,1.66005,9.53103e-17,-332.76,882.507)">
        <path d="M350.246,523.888L350.246,551.764L245.363,508.878L350.246,465.991L350.246,493.867L618.352,493.867L618.352,465.991L618.352,551.764L618.352,523.888L350.246,523.888Z" style="fill:rgb(89,174,55);"/>
    </g>
    <g transform="matrix(1,0,0,1,5.34189,-0.376725)">
        <text x="440.806px" y="447.013px" style="font-family:'ArialMT', 'Arial', sans-serif;font-size:50.559px;">100%</text>
    </g>
</svg>
